<?xml version="1.0" encoding="iso-8859-1"?>
<!-- Generator: Adobe Illustrator 19.0.0, SVG Export Plug-In . SVG Version: 6.00 Build 0)  -->
<svg version="1.1" id="Capa_1" xmlns="http://www.w3.org/2000/svg" xmlns:xlink="http://www.w3.org/1999/xlink" x="0px" y="0px"
	 viewBox="0 0 512 512" style="enable-background:new 0 0 512 512;" xml:space="preserve">
<g>
	<g>
		<path d="M166,0H75C33.645,0,0,33.645,0,75v91c0,41.355,33.645,75,75,75h91c41.355,0,75-33.645,75-75V75
			C241,33.645,207.355,0,166,0z M211,166c0,24.813-20.187,45-45,45H75c-24.813,0-45-20.187-45-45V75c0-24.813,20.187-45,45-45h91
			c24.813,0,45,20.187,45,45V166z"/>
	</g>
</g>
<g>
	<g>
		<path d="M437,271h-91c-41.355,0-75,33.645-75,75v91c0,41.355,33.645,75,75,75h91c41.355,0,75-33.645,75-75v-91
			C512,304.645,478.355,271,437,271z M482,437c0,24.813-20.187,45-45,45h-91c-24.813,0-45-20.187-45-45v-91
			c0-24.813,20.187-45,45-45h91c24.813,0,45,20.187,45,45V437z"/>
	</g>
</g>
<g>
	<g>
		<path d="M437,0h-91c-41.355,0-75,33.645-75,75v91c0,57.897-47.103,105-105,105H75c-41.355,0-75,33.645-75,75v91
			c0,41.355,33.645,75,75,75h91c41.355,0,75-33.645,75-75v-91c0-57.897,47.103-105,105-105h91c41.355,0,75-33.645,75-75V75
			C512,33.645,478.355,0,437,0z M211,346v91c0,24.813-20.187,45-45,45H75c-24.813,0-45-20.187-45-45v-91c0-24.813,20.187-45,45-45
			h91c20.827,0,40.568-4.741,58.2-13.2C215.741,305.432,211,325.173,211,346z M482,166c0,24.813-20.187,45-45,45h-91
			c-20.827,0-40.568,4.741-58.2,13.2c8.459-17.632,13.2-37.373,13.2-58.2V75c0-24.813,20.187-45,45-45h91c24.813,0,45,20.187,45,45
			V166z"/>
	</g>
</g>
<g>
</g>
<g>
</g>
<g>
</g>
<g>
</g>
<g>
</g>
<g>
</g>
<g>
</g>
<g>
</g>
<g>
</g>
<g>
</g>
<g>
</g>
<g>
</g>
<g>
</g>
<g>
</g>
<g>
</g>
</svg>
